<svg width="141" height="141" viewBox="0 0 141 141" fill="none" xmlns="http://www.w3.org/2000/svg">
<circle cx="70.5" cy="70.5" r="70.5" fill="#E5BEB8"/>
<path d="M95.1875 31C99.2676 31 102.757 32.4488 105.654 35.346C108.551 38.2432 110 41.7324 110 45.8125V95.1875C110 99.2676 108.551 102.757 105.654 105.654C102.757 108.551 99.2676 110 95.1875 110H85.5182V79.3978H95.7533L97.2962 67.4655H85.5182V59.8535C85.5182 57.9335 85.9209 56.4934 86.7269 55.5332C87.5328 54.573 89.1015 54.0931 91.4329 54.0931L97.7077 54.0417V43.3952C95.5475 43.0866 92.496 42.9323 88.5527 42.9323C83.8894 42.9323 80.1605 44.304 77.3662 47.0469C74.5719 49.7898 73.1745 53.6647 73.1745 58.6706V67.4655H62.888V79.3978H73.1745V110H45.8125C41.7324 110 38.2432 108.551 35.346 105.654C32.4488 102.757 31 99.2676 31 95.1875V45.8125C31 41.7324 32.4488 38.2432 35.346 35.346C38.2432 32.4488 41.7324 31 45.8125 31H95.1875Z" fill="#F9F9F9"/>
</svg>
