<svg width="141" height="141" viewBox="0 0 141 141" fill="none" xmlns="http://www.w3.org/2000/svg">
<circle cx="70.5" cy="70.5" r="70.5" fill="#E5BEB8"/>
<path d="M109.781 54.2172C109.693 50.9256 109.078 47.7217 107.937 44.6494C106.928 42.0161 105.392 39.6461 103.373 37.6711C101.398 35.6522 99.0278 34.1161 96.3944 33.1067C93.3222 31.9656 90.0744 31.3511 86.8267 31.2633C82.5694 31.0439 81.2089 31 70.5 31C59.7472 31 58.4306 31.0439 54.2172 31.2194C50.9256 31.3072 47.6778 31.9217 44.6056 33.0628C41.9722 34.0722 39.6022 35.6083 37.6272 37.6272C35.6083 39.6022 34.0722 41.9722 33.0628 44.6494C31.9217 47.6778 31.3072 50.9256 31.2194 54.2172C31.0439 58.4306 31 59.7911 31 70.5C31 81.2089 31.0439 82.5694 31.2194 86.7828C31.2633 90.0744 31.9217 93.2783 33.0628 96.3506C34.0722 98.9839 35.6083 101.354 37.6272 103.329C39.6022 105.348 41.9722 106.884 44.6056 107.893C47.6778 109.034 50.9256 109.649 54.1733 109.737C58.4306 109.956 59.7472 110 70.5 110C81.2089 110 82.5694 109.956 86.7828 109.781C90.0744 109.693 93.2783 109.078 96.3506 107.937C101.661 105.874 105.831 101.705 107.893 96.3944C109.034 93.3222 109.649 90.0744 109.737 86.8267C109.956 82.5694 110 81.2528 110 70.5C110 59.7911 109.956 58.4306 109.781 54.2172ZM102.627 86.4756C102.627 88.9772 102.144 91.4789 101.266 93.805C99.9494 97.2722 97.2283 99.9933 93.7611 101.31C91.3911 102.188 88.9333 102.627 86.4317 102.671C82.2622 102.846 80.9894 102.89 70.4561 102.89C59.9228 102.89 58.65 102.846 54.4806 102.671C51.9789 102.671 49.4772 102.188 47.1511 101.31C45.4394 100.696 43.9033 99.6422 42.5867 98.3694C41.27 97.0967 40.2606 95.5167 39.6461 93.805C38.7683 91.435 38.3294 88.9772 38.2856 86.4756C38.1539 82.3061 38.11 81.0333 38.11 70.5C38.11 59.9667 38.1539 58.6939 38.3294 54.5244C38.3294 52.0228 38.8122 49.5211 39.69 47.195C40.3483 45.4833 41.3578 43.9472 42.6744 42.6744C43.9472 41.3578 45.5272 40.3483 47.2389 39.7339C49.6089 38.8561 52.0667 38.4172 54.5683 38.3733C58.6939 38.1539 59.9667 38.11 70.5 38.11C81.0333 38.11 82.3061 38.1539 86.4756 38.3733C88.9772 38.3733 91.4789 38.8561 93.805 39.7339C95.5167 40.3922 97.0528 41.4017 98.3694 42.6744C99.6861 43.9472 100.696 45.5272 101.31 47.2389C102.188 49.6089 102.627 52.0667 102.671 54.5683C102.846 58.6939 102.89 59.9667 102.89 70.5C102.89 81.0333 102.846 82.3061 102.627 86.4756ZM70.5 50.2233C59.3083 50.2233 50.2233 59.3083 50.2233 70.5C50.2233 81.6917 59.3083 90.7767 70.5 90.7767C81.6917 90.7767 90.7767 81.6917 90.7767 70.5C90.7767 59.3083 81.6917 50.2233 70.5 50.2233ZM70.5 83.6667C63.2144 83.6667 57.3333 77.7856 57.3333 70.5C57.3333 63.2144 63.2144 57.3333 70.5 57.3333C77.7856 57.3333 83.6667 63.2144 83.6667 70.5C83.6667 77.7856 77.7856 83.6667 70.5 83.6667ZM96.3067 49.4333C96.3067 52.0667 94.2 54.1733 91.5667 54.1733C88.9333 54.1733 86.8267 52.0667 86.8267 49.4333C86.8267 46.8 88.9333 44.6933 91.5667 44.6933C94.2 44.6933 96.3067 46.8 96.3067 49.4333Z" fill="#F9F9F9"/>
</svg>
