<svg width="232" height="59" viewBox="0 0 232 59" fill="none" xmlns="http://www.w3.org/2000/svg">
<path fill-rule="evenodd" clip-rule="evenodd" d="M23.8342 13.6318H1.64889L0.0488281 18.1745H22.2331L23.8342 13.6318ZM26.2316 6.81531H4.04733L2.44618 11.3592H24.6315L26.2316 6.81531ZM27.0322 4.54392H4.84791L6.44906 0H28.6333L27.0322 4.54392Z" fill="#01A8FF"/>
<path fill-rule="evenodd" clip-rule="evenodd" d="M214.834 33.2913V29.903C215.099 30.0181 215.552 30.1343 215.931 30.1343C217.406 30.1343 218.011 29.5176 218.011 19.1974V13.4988H231.323V33.4444H226.633V17.1184H222.058V19.1974C222.058 32.2122 220.545 33.7527 217.103 33.7527C216.31 33.7527 215.515 33.5215 214.834 33.2913ZM208.212 25.4355V24.1653H207.796C203.787 24.1653 201.404 24.7809 201.404 27.6687C201.404 29.4785 202.577 30.5186 204.392 30.5186C206.548 30.5186 208.212 28.7088 208.212 25.4355ZM197.018 27.9771C197.018 22.4326 201.329 21.0842 207.267 21.0842H208.212V20.3916C208.212 18.4277 207.267 16.5788 204.582 16.5788C202.237 16.5788 199.967 17.773 199.06 18.5427V14.6539C200.384 14.0373 202.161 13.1905 205.149 13.1905C211.2 13.1905 212.599 16.1945 212.599 21.1993V33.4444H208.364V30.7498H208.288C207.341 32.3284 205.792 33.7527 202.842 33.7527C199.59 33.7527 197.018 31.5966 197.018 27.9771ZM196.318 13.4988V17.1184H191.326V33.4444H186.636V17.1184H181.645V13.4988H196.318ZM168.072 13.4988V23.3945L167.958 26.937H168.033L174.463 13.4988H179.341V33.4444H174.652V23.7028L174.766 20.0062H174.652L168.033 33.4444H163.382V13.4988H168.072ZM159.464 13.4988V33.4444H154.774V17.1184H148.761V33.4444H144.072V13.4988H159.464ZM135.819 25.4355V24.1653H135.404C131.394 24.1653 129.012 24.7809 129.012 27.6687C129.012 29.4785 130.185 30.5186 132 30.5186C134.156 30.5186 135.819 28.7088 135.819 25.4355ZM124.626 27.9771C124.626 22.4326 128.936 21.0842 134.874 21.0842H135.819V20.3916C135.819 18.4277 134.874 16.5788 132.19 16.5788C129.845 16.5788 127.575 17.773 126.667 18.5427V14.6539C127.992 14.0373 129.769 13.1905 132.756 13.1905C138.808 13.1905 140.207 16.1945 140.207 21.1993V33.4444H135.972V30.7498H135.896C134.949 32.3284 133.4 33.7527 130.449 33.7527C127.197 33.7527 124.626 31.5966 124.626 27.9771ZM105.315 6.49091H110.156V17.9272H110.269L117.72 6.49091H123.355L114.429 19.0432L124.073 33.4444H118.211L110.269 20.7759H110.156V33.4444H105.315V6.49091ZM46.3163 19.0823V19.1761C47.3235 19.5493 48.2846 20.2017 48.7882 20.6217C50.3462 21.9277 51.0331 23.6526 51.0331 25.8913C51.0331 29.5746 49.1097 32.2323 45.9498 33.0713C44.9876 33.3517 43.9804 33.4444 42.102 33.4444H32.5312V6.49314H41.0026C42.7438 6.49314 43.9343 6.58586 44.9876 6.86627C48.0564 7.70525 50.0708 9.85018 50.0708 13.2541C50.0708 15.0729 49.4301 16.6123 48.3768 17.6378C47.9182 18.1037 47.2774 18.6634 46.3163 19.0823ZM37.8438 21.9277V29.0149H41.5073C42.6056 29.0149 43.6139 28.9222 44.3468 28.2228C45.0786 27.5235 45.4001 26.6376 45.4001 25.4713C45.4001 24.5854 45.1708 23.7464 44.7133 23.1398C43.9343 22.1601 42.9721 21.9277 41.3241 21.9277H37.8438ZM37.7977 17.2647H40.7744C41.6905 17.2647 42.1481 17.2647 42.6056 17.1251C43.8421 16.7519 44.6211 15.6325 44.6211 14.0942C44.6211 12.2755 43.7971 11.4823 42.6056 11.1092C42.102 10.9696 41.5984 10.9226 40.5912 10.9226H37.7977V17.2647ZM59.0008 33.4444V11.0165H51.3534V6.49314H72.6026L71.0918 11.0165H64.3134V33.4444H59.0008ZM74.2517 33.4444V6.49314H91.4709L89.959 11.0165H79.5181V16.9854H83.7763C87.2116 16.9854 88.9978 17.8244 90.2343 18.8969C91.1955 19.7358 92.8445 21.6015 92.8445 25.2847C92.8445 28.9222 91.1505 30.9275 89.7307 31.953C88.0817 33.1182 86.3415 33.4444 82.8152 33.4444H74.2517ZM79.5182 28.9222H83.502C85.0128 28.9222 85.929 28.549 86.5709 27.7101C86.8912 27.29 87.3488 26.5438 87.3488 25.1451C87.3488 23.7464 86.8912 22.7667 85.9751 22.0673C85.4254 21.6473 84.6925 21.4149 83.4559 21.4149H79.5182V28.9222Z" fill="#04288B"/>
<path fill-rule="evenodd" clip-rule="evenodd" d="M80.4102 56.2268C80.8593 56.2268 81.3299 56.1914 81.8218 56.1206C82.3138 56.0498 82.8111 55.9334 83.3137 55.7715V53.9047C83.0356 54.0261 82.6961 54.145 82.295 54.2614C81.894 54.3777 81.4047 54.4359 80.8273 54.4359C80.3246 54.4359 79.8407 54.3676 79.3755 54.231C78.9103 54.0944 78.5012 53.882 78.1483 53.5936C77.7954 53.3052 77.512 52.9309 77.2981 52.4705C77.0842 52.0101 76.9773 51.4612 76.9773 50.8238C76.9773 50.2774 77.0682 49.7791 77.25 49.3288C77.4318 48.8786 77.6938 48.4915 78.036 48.1678C78.3783 47.844 78.798 47.5936 79.2953 47.4165C79.7926 47.2394 80.3567 47.1509 80.9877 47.1509C81.4689 47.1509 81.894 47.1914 82.263 47.2723C82.6319 47.3533 82.9822 47.4544 83.3137 47.5759V45.7243C82.8859 45.5927 82.4769 45.4991 82.0865 45.4435C81.6962 45.3878 81.2764 45.36 80.8273 45.36C79.9396 45.36 79.1162 45.4738 78.3569 45.7015C77.5976 45.9291 76.9372 46.2732 76.3757 46.7335C75.8143 47.1939 75.3731 47.7681 75.0523 48.4561C74.7315 49.1442 74.5711 49.9435 74.5711 50.8541C74.5711 51.8255 74.7449 52.6501 75.0924 53.328C75.44 54.0059 75.8918 54.5599 76.4479 54.9899C77.004 55.4199 77.6296 55.7336 78.3248 55.9309C79.0199 56.1282 79.715 56.2268 80.4102 56.2268ZM39.8573 49.6703L35.895 56.1054H33.168V45.4814H35.4459V50.9452L35.3977 53.5253H35.4459L36.2479 51.9772L40.1781 45.4814H42.9052V56.1054H40.6273V50.6265L40.6754 48.0615H40.6273L39.8573 49.6703ZM47.4289 51.5067V56.1054H45.151V45.4814H47.4289V49.7614H51.9846V45.4814H54.2625V56.1054H51.9846V51.5067H47.4289ZM60.0535 56.1054C60.9518 56.1054 61.6871 56.0118 62.2592 55.8246C62.8314 55.6374 63.2805 55.3971 63.6067 55.1037C63.9329 54.8103 64.1575 54.489 64.2805 54.14C64.4034 53.7909 64.4649 53.4494 64.4649 53.1155C64.4649 52.4477 64.2537 51.8862 63.8313 51.4308C63.4089 50.9755 62.834 50.6922 62.1068 50.5809C62.31 50.5 62.5186 50.4039 62.7324 50.2926C62.9463 50.1813 63.1415 50.0295 63.318 49.8373C63.4944 49.645 63.6415 49.4072 63.7591 49.1239C63.8767 48.8406 63.9356 48.5017 63.9356 48.1071C63.9356 47.6619 63.842 47.2748 63.6548 46.946C63.4677 46.6172 63.211 46.344 62.8848 46.1264C62.5587 45.9089 62.1656 45.747 61.7058 45.6408C61.2459 45.5345 60.7433 45.4814 60.1979 45.4814H56.5083V56.1054H60.0535ZM58.7862 49.7917H59.8931C60.2567 49.7917 60.5535 49.7462 60.7834 49.6551C61.0133 49.5641 61.1925 49.4502 61.3208 49.3136C61.4491 49.177 61.5347 49.0329 61.5774 48.8811C61.6202 48.7293 61.6416 48.5927 61.6416 48.4713C61.6416 48.4005 61.6282 48.2892 61.6015 48.1374C61.5748 47.9856 61.4999 47.8389 61.3769 47.6973C61.2539 47.5556 61.0695 47.4291 60.8235 47.3178C60.5775 47.2065 60.2353 47.1509 59.7968 47.1509H58.7862V49.7917ZM60.0535 54.4359H58.7862V51.4612H60.0535C60.4492 51.4612 60.7754 51.5042 61.032 51.5902C61.2887 51.6762 61.4919 51.7875 61.6416 51.9241C61.7913 52.0607 61.8983 52.2175 61.9625 52.3946C62.0266 52.5717 62.0587 52.7563 62.0587 52.9486C62.0587 53.1408 62.0213 53.3255 61.9464 53.5025C61.8715 53.6796 61.7539 53.8364 61.5935 53.973C61.4331 54.1096 61.2245 54.2209 60.9679 54.3069C60.7112 54.3929 60.4064 54.4359 60.0535 54.4359ZM73.0471 54.2234V56.1054H66.3418V45.4814H73.0471V47.3634H68.6197V49.7614H72.6461V51.5067H68.6197V54.2234H73.0471ZM89.7142 47.3634V56.1054H87.4363V47.3634H84.196V45.4814H92.9546V47.3634H89.7142ZM97.0452 56.1054L101.007 49.6703L101.777 48.0615H101.826L101.777 50.6265V56.1054H104.055V45.4814H101.328L97.3981 51.9772L96.596 53.5253H96.5479L96.596 50.9452V45.4814H94.3182V56.1054H97.0452ZM116.712 54.2234V58.2909H114.643V56.1054H106.301V45.4814H108.579V54.2234H113.135V45.4814H115.413V54.2234H116.712ZM120.883 56.1054L124.845 49.6703L125.615 48.0615H125.663L125.615 50.6265V56.1054H127.893V45.4814H125.166L121.236 51.9772L120.434 53.5253H120.386L120.434 50.9452V45.4814H118.156V56.1054H120.883ZM136.828 49.6703L132.866 56.1054H130.139V45.4814H132.417V50.9452L132.369 53.5253H132.417L133.219 51.9772L137.149 45.4814H139.876V56.1054H137.598V50.6265L137.646 48.0615H137.598L136.828 49.6703Z" fill="#04288B"/>
</svg>
