<svg width="19" height="17" viewBox="0 0 19 17" fill="none" xmlns="http://www.w3.org/2000/svg">
<path d="M17.7832 8.94338C17.2335 8.20147 15.5899 8.44536 15.5899 8.44536L15.5117 13.9478C15.5117 13.9478 17.0139 14.2021 17.5282 13.6946C18.0107 13.2183 18.125 12.3134 18.1699 11.2842C18.2119 10.3248 18.0945 9.36337 17.7832 8.94338Z" fill="#557CB4"/>
<path d="M17.9405 8.80121C17.373 8.14779 16.3447 8.12658 15.5468 8.23791C15.4593 8.25019 15.3801 8.34388 15.3789 8.43177C15.3529 10.266 15.3269 12.1 15.3008 13.9342C15.2991 14.057 15.381 14.1398 15.4986 14.1587C16.4088 14.3054 17.5221 14.3194 17.9962 13.3914C18.3351 12.7278 18.3663 11.8944 18.3851 11.1667C18.4047 10.406 18.3894 9.51146 17.9717 8.84627C17.8281 8.61771 17.45 8.80861 17.5954 9.04001C18.2113 10.0209 18.1046 11.9288 17.7077 12.9897C17.359 13.9213 16.3643 13.8716 15.5253 13.7363L15.7231 13.9608C15.7492 12.1267 15.7753 10.2924 15.8013 8.45836C15.7453 8.52301 15.6893 8.58755 15.6334 8.6521C16.2782 8.56208 17.1688 8.55793 17.6265 9.08509C17.8052 9.29061 18.1193 9.00724 17.9405 8.80121Z" fill="#262C40"/>
<path d="M17.0015 11.3499C17.0533 9.82206 16.9244 8.16833 16.7187 7.37668C16.5131 6.58493 16.3749 6.37676 15.5408 6.11603C14.7067 5.85509 11.6964 5.48686 9.82304 5.42333C7.94967 5.35979 4.92141 5.5232 4.0716 5.7269C3.2218 5.9306 3.06976 6.12891 2.81085 6.90483C2.55204 7.68085 2.3114 9.3219 2.25954 10.8498C2.20767 12.3777 2.33656 14.0313 2.54229 14.8231C2.74792 15.6148 2.88615 15.8229 3.72023 16.0838C4.5542 16.3445 7.5645 16.7128 9.43797 16.7764C11.3113 16.8399 14.3396 16.6765 15.1894 16.4729C16.0392 16.2692 16.1912 16.0709 16.4501 15.2949C16.709 14.519 16.9496 12.8778 17.0015 11.3499Z" fill="#98C2E5"/>
<path d="M17.2129 11.3633C17.241 10.3333 17.215 9.29736 17.0899 8.2737C17.0173 7.68027 16.9444 6.8742 16.5226 6.4053C16.1668 6.01008 15.5629 5.88667 15.0637 5.78558C14.3117 5.63314 13.5467 5.53651 12.7848 5.44903C11.0227 5.24675 9.26786 5.16403 7.49507 5.22391C6.71001 5.2504 5.92446 5.29212 5.14235 5.36591C4.56586 5.42031 3.91651 5.46191 3.39199 5.73087C2.85661 6.00541 2.6727 6.57825 2.52513 7.12713C2.27951 8.03996 2.17203 9.00008 2.09926 9.93981C2.01655 11.0097 2.01685 12.0858 2.09744 13.1558C2.15387 13.9042 2.19447 14.7899 2.53681 15.4774C3.05239 16.513 4.79615 16.5364 5.78643 16.666C7.49791 16.8901 9.21681 17.0237 10.9434 16.9965C11.9187 16.9811 12.8947 16.9381 13.8667 16.8561C14.5201 16.801 15.2735 16.7744 15.8695 16.4689C16.4782 16.1568 16.6557 15.4352 16.7986 14.8169C17.0595 13.6877 17.1661 12.519 17.2129 11.3633C17.2239 11.0911 16.8015 11.0644 16.7905 11.3367C16.7538 12.242 16.6754 13.1476 16.5228 14.0414C16.4111 14.6968 16.2916 15.8082 15.6119 16.1238C15.1824 16.3234 14.6571 16.3566 14.1917 16.4042C13.395 16.4856 12.5932 16.5266 11.793 16.5535C10.3661 16.6013 8.94906 16.5672 7.52734 16.435C6.29653 16.3204 4.97701 16.2428 3.78761 15.8831C2.95729 15.6321 2.79176 15.1204 2.65362 14.3167C2.50179 13.4332 2.46312 12.5281 2.45956 11.6329C2.45591 10.7012 2.51681 9.7687 2.63698 8.8448C2.73594 8.08339 2.82403 7.21177 3.1886 6.52253C3.69901 5.55773 5.95084 5.71311 6.85261 5.67109C8.27778 5.60451 9.70113 5.60015 11.124 5.7122C12.5495 5.82455 14.0972 5.89986 15.4739 6.31659C16.3571 6.58403 16.5118 7.2345 16.6365 8.06472C16.7987 9.1442 16.8203 10.2473 16.7905 11.3367C16.783 11.6087 17.2055 11.6358 17.2129 11.3633Z" fill="#262C40"/>
<path d="M1.41855 7.95262C1.54105 7.78343 1.71278 7.66499 1.90684 7.58308C2.73452 7.23425 3.07289 7.79886 3.06041 8.76011L3.01971 11.8964C3.00702 12.8698 2.62754 13.6977 1.80788 13.3C1.70263 13.249 1.61067 13.1846 1.53932 13.104C1.07042 12.5747 0.708599 11.5212 0.692766 10.4058C0.677948 9.36572 1.09549 8.39858 1.41855 7.95262Z" fill="#557CB4"/>
<path d="M1.56055 8.10987C1.86422 7.77352 2.41046 7.49209 2.70845 7.95571C2.85226 8.17951 2.84648 8.49728 2.84932 8.75101C2.85145 8.94912 2.84414 9.14775 2.84161 9.34566C2.83207 10.0769 2.82263 10.8081 2.81309 11.5392C2.81025 11.763 2.81411 11.9893 2.78782 12.2116C2.72378 12.7533 2.35961 13.5638 1.69635 12.9625C1.47865 12.765 1.32743 12.4415 1.20259 12.1789C0.534153 10.7715 0.713389 9.32099 1.59567 8.06876C1.75289 7.84558 1.39837 7.61459 1.24156 7.83706C0.155579 9.37854 0.057236 11.3233 1.13459 12.919C1.4612 13.4026 2.07817 13.862 2.65943 13.4649C3.14589 13.1324 3.21237 12.4118 3.23135 11.8786C3.26748 10.8694 3.27458 9.85241 3.27082 8.84265C3.269 8.3768 3.26017 7.78348 2.86942 7.45565C2.37433 7.04024 1.64794 7.3847 1.27678 7.79595C1.09612 7.9961 1.37766 8.31235 1.56055 8.10987Z" fill="#262C40"/>
<path d="M7.86486 13.7278C9.28983 14.7109 11.0326 15.0203 12.708 14.5846C12.9707 14.5163 12.8856 14.1018 12.6215 14.1703C11.0475 14.5798 9.43497 14.2971 8.09647 13.3739C7.87187 13.2187 7.64066 13.5733 7.86486 13.7278Z" fill="#262C40"/>
<path d="M9.36299 9.39404C9.89614 10.0461 9.79972 11.007 9.14762 11.5401C8.49553 12.0731 7.53479 11.9766 7.00164 11.3246C6.4685 10.6726 6.56502 9.71183 7.21701 9.17868C7.86911 8.64553 8.82995 8.74195 9.36299 9.39404Z" fill="white"/>
<path d="M7.08777 9.45276C7.57991 8.90611 8.55902 8.75367 9.12911 9.28875C9.7673 9.88766 9.89579 10.9628 9.11003 11.5173C8.62651 11.8586 7.78655 11.7595 7.32729 11.4215C6.72239 10.9767 6.70676 9.99168 7.12136 9.41347C7.27309 9.20175 6.93461 8.98131 6.78329 9.19242C6.28475 9.88785 6.28282 11.1137 6.99439 11.6781C7.67978 12.2217 8.85487 12.3356 9.51884 11.6964C10.296 10.9484 10.2006 9.79723 9.46972 9.05145C8.75683 8.32405 7.4776 8.41904 6.81688 9.15314C6.64475 9.34436 6.9135 9.6463 7.08777 9.45276Z" fill="#262C40"/>
<path d="M8.3031 10.7558C8.2007 10.7238 8.10245 10.8506 8.12773 10.9551C8.15269 11.0595 8.2552 11.1277 8.35801 11.1593C8.65295 11.2498 9.0029 11.0936 9.13241 10.8136C9.26192 10.5335 9.15433 10.1656 8.89451 9.99949C8.63448 9.83334 8.2554 9.89049 8.05566 10.1257C8.0718 10.1875 8.15056 10.209 8.2142 10.2012C8.27763 10.1932 8.34056 10.1673 8.40348 10.1787C8.52456 10.2009 8.58008 10.3586 8.53583 10.4733C8.49148 10.5878 8.38105 10.6626 8.27022 10.7157" fill="#262C40"/>
<path d="M8.32912 10.5555C7.87555 10.5227 7.81567 11.0867 8.1642 11.291C8.52298 11.5012 9.01024 11.3479 9.24348 11.0217C9.49274 10.6732 9.40759 10.1474 9.0753 9.88122C8.70952 9.58821 8.20438 9.68199 7.89615 10.0026C7.83393 10.0673 7.84804 10.1802 7.89503 10.2473C7.95238 10.3294 8.02261 10.3813 8.1235 10.3992C8.16115 10.4058 8.20398 10.393 8.24082 10.4014C8.30446 10.37 8.3212 10.381 8.29096 10.4345C8.28629 10.4872 8.25411 10.5187 8.19454 10.5286C7.96597 10.6487 8.11669 11.0236 8.34678 10.9029C8.57554 10.7827 8.80371 10.5882 8.7423 10.2997C8.71855 10.1884 8.65816 10.0859 8.55849 10.0268C8.52561 10.0072 8.19769 9.97572 8.21748 10.0039C8.21707 10.0855 8.21677 10.1671 8.21636 10.2487C8.49232 9.96151 8.96934 10.1412 8.98365 10.539C8.98954 10.7036 8.90845 10.8384 8.76615 10.9189C8.60376 11.0106 8.44959 10.9686 8.27827 10.9562C8.53637 10.9749 8.58935 10.5744 8.32912 10.5555Z" fill="#262C40"/>
<path d="M14.9073 9.69461C15.3863 10.2803 15.2996 11.1434 14.7138 11.6224C14.128 12.1013 13.2649 12.0147 12.786 11.4289C12.3071 10.843 12.3936 9.98001 12.9795 9.50106C13.5653 9.02211 14.4284 9.10879 14.9073 9.69461Z" fill="white"/>
<path d="M12.8629 9.74709C13.305 9.25596 14.1845 9.11914 14.6967 9.59981C15.27 10.1378 15.3854 11.1035 14.6795 11.6018C14.2452 11.9084 13.4906 11.8194 13.0781 11.5158C12.5347 11.116 12.5206 10.2313 12.893 9.71176C13.0293 9.52156 12.7253 9.32365 12.5894 9.51314C12.1415 10.138 12.1397 11.2392 12.779 11.7462C13.3947 12.2346 14.4504 12.337 15.0468 11.7627C15.7449 11.0907 15.6593 10.0565 15.0027 9.38648C14.3623 8.73317 13.2131 8.81862 12.6195 9.47793C12.4648 9.64965 12.7064 9.92105 12.8629 9.74709Z" fill="#262C40"/>
<path d="M13.9537 10.9176C13.8616 10.8887 13.7735 11.0027 13.796 11.0966C13.8186 11.1904 13.9107 11.2516 14.003 11.2799C14.268 11.3613 14.5825 11.2209 14.6988 10.9694C14.8152 10.7178 14.7186 10.3873 14.4849 10.2382C14.2513 10.0889 13.9108 10.1401 13.7314 10.3514C13.746 10.407 13.8166 10.4263 13.8737 10.4192C13.9307 10.4121 13.9874 10.3889 14.044 10.3992C14.1526 10.419 14.2026 10.5607 14.1627 10.6636C14.1229 10.7666 14.0236 10.8338 13.9241 10.8816" fill="#262C40"/>
<path d="M13.9781 10.7379C13.5706 10.7084 13.5168 11.215 13.83 11.3987C14.1523 11.5874 14.59 11.4496 14.7995 11.1567C15.0235 10.8437 14.947 10.3714 14.6484 10.1321C14.3198 9.86886 13.8661 9.95309 13.5891 10.2411C13.5333 10.2993 13.546 10.4008 13.5882 10.461C13.6398 10.5349 13.7028 10.5814 13.7934 10.5974C13.8272 10.6036 13.8657 10.592 13.8988 10.5995C13.956 10.5713 13.971 10.581 13.9438 10.6291C13.9397 10.6766 13.9107 10.7048 13.8573 10.7138C13.6518 10.8216 13.7873 11.1584 13.9941 11.0498C14.1995 10.942 14.4044 10.7672 14.3493 10.5081C14.328 10.4082 14.2737 10.3161 14.1843 10.2628C14.1546 10.2453 13.8601 10.217 13.8779 10.2423C13.8775 10.3156 13.8772 10.389 13.8768 10.4622C14.1248 10.2043 14.5533 10.3657 14.5661 10.7231C14.5715 10.871 14.4986 10.9921 14.3707 11.0642C14.2249 11.1468 14.0864 11.109 13.9324 11.0979C14.1643 11.1147 14.2119 10.7549 13.9781 10.7379Z" fill="#262C40"/>
<path d="M10.8413 1.88861C10.8413 2.49828 10.3502 2.99256 9.7444 2.99256C9.13859 2.99256 8.64746 2.49828 8.64746 1.88861C8.64746 1.27894 9.13859 0.784668 9.7444 0.784668C10.3502 0.784668 10.8413 1.27894 10.8413 1.88861Z" fill="#98C2E5"/>
<path d="M10.7131 1.88843C10.7076 2.29044 10.4631 2.66618 10.0796 2.80583C9.68922 2.94803 9.24651 2.82511 8.98587 2.50094C8.73295 2.18611 8.70544 1.73224 8.91077 1.38645C9.11406 1.04401 9.52084 0.852178 9.91484 0.925761C10.379 1.01244 10.7068 1.42085 10.7131 1.88843C10.7163 2.13313 11.0969 2.13384 11.0937 1.88843C11.0859 1.32158 10.7404 0.817372 10.2097 0.614689C9.68526 0.414443 9.06148 0.584544 8.70727 1.01863C8.34809 1.45901 8.28973 2.09019 8.58203 2.58254C8.87331 3.07286 9.4431 3.32192 10.0005 3.22094C10.6362 3.10584 11.085 2.52236 11.0937 1.88843C11.0969 1.64342 10.7163 1.64332 10.7131 1.88843Z" fill="#262C40"/>
<path d="M9.91462 3.06514C9.9205 3.0757 9.92578 3.08646 9.93116 3.09722C9.93877 3.11285 9.94587 3.12868 9.95277 3.14451C9.93806 3.11092 9.95876 3.15943 9.96171 3.16724C10.0126 3.29888 10.0516 3.43479 10.0826 3.57231C10.1087 3.68873 10.1185 3.75326 10.1277 3.83923C10.1395 3.95067 10.1478 4.06252 10.1554 4.17436C10.1783 4.52056 10.1919 4.86767 10.2001 5.21457C10.206 5.45907 10.5866 5.45998 10.5807 5.21457C10.5721 4.85051 10.5579 4.48615 10.5324 4.12291C10.5029 3.70262 10.453 3.24723 10.2432 2.87302C10.1235 2.65938 9.79455 2.85109 9.91462 3.06514Z" fill="#262C40"/>
<path d="M7.04305 7.75337C7.11501 7.72637 7.18646 7.70465 7.25649 7.68821C7.38417 7.65827 7.51195 7.73744 7.54199 7.86512C7.57203 7.9928 7.49358 8.12129 7.36509 8.15052C6.73136 8.30043 5.92916 9.04306 5.73571 9.98532C5.70942 10.1137 5.58388 10.1964 5.45528 10.1701C5.32679 10.1438 5.24407 10.0182 5.27056 9.88971C5.484 8.84961 6.30022 8.03085 7.04305 7.75337Z" fill="#262C40"/>
<path d="M13.0718 8.3313C13.1276 8.31049 13.183 8.29355 13.2372 8.28086C13.3363 8.25741 13.4355 8.31902 13.4588 8.41797C13.482 8.51703 13.4211 8.6167 13.3215 8.63933C12.8301 8.75564 12.2079 9.33142 12.0579 10.0623C12.0375 10.1618 11.9402 10.226 11.8405 10.2057C11.7408 10.1852 11.6767 10.0878 11.6972 9.98807C11.8627 9.1814 12.4956 8.54656 13.0718 8.3313Z" fill="#262C40"/>
</svg>
