<svg width="20" height="19" viewBox="0 0 20 19" fill="none" xmlns="http://www.w3.org/2000/svg">
<path d="M13.5701 8.14286C13.5701 10.8996 11.3268 13.1429 8.57009 13.1429C5.8134 13.1429 3.57009 10.8996 3.57009 8.14286C3.57009 5.38616 5.8134 3.14286 8.57009 3.14286C11.3268 3.14286 13.5701 5.38616 13.5701 8.14286ZM19.2844 17.4286C19.2844 17.0491 19.1281 16.6808 18.8714 16.4241L15.0433 12.596C15.9473 11.2902 16.4272 9.72768 16.4272 8.14286C16.4272 3.80134 12.9116 0.285713 8.57009 0.285713C4.22858 0.285713 0.712952 3.80134 0.712952 8.14286C0.712952 12.4844 4.22858 16 8.57009 16C10.1549 16 11.7174 15.5201 13.0232 14.6161L16.8513 18.433C17.108 18.7009 17.4763 18.8571 17.8558 18.8571C18.6371 18.8571 19.2844 18.2098 19.2844 17.4286Z" fill="#0057B6"/>
</svg>
