<svg width="169" height="37" viewBox="0 0 169 37" fill="none" xmlns="http://www.w3.org/2000/svg">
<path d="M18.0394 0C13.1798 0.078923 8.55054 2.07168 5.16849 5.5405C1.78643 9.00932 -0.0717625 13.6705 0.00212191 18.5C-0.0717625 23.3295 1.78643 27.9907 5.16849 31.4595C8.55054 34.9283 13.1798 36.9211 18.0394 37C22.8989 36.9211 27.5282 34.9283 30.9103 31.4595C34.2924 27.9907 36.1506 23.3295 36.0767 18.5C36.1226 16.1062 35.6916 13.727 34.8086 11.4994C33.9255 9.27173 32.6079 7.23969 30.9314 5.52021C29.2549 3.80072 27.2528 2.42777 25.0402 1.48038C22.8277 0.532985 20.4484 0.0298718 18.0394 0ZM18.0394 36.4255C13.3541 36.3444 8.89073 34.4274 5.62083 31.0917C2.35094 27.756 0.539281 23.2717 0.58024 18.6149C0.515834 13.9405 2.31624 9.43086 5.58787 6.07185C8.8595 2.71284 13.3362 0.777689 18.0394 0.689441C22.7426 0.777689 27.2193 2.71284 30.4909 6.07185C33.7626 9.43086 35.563 13.9405 35.4986 18.6149C35.5291 20.9237 35.1017 23.2159 34.2408 25.3605C33.38 27.5051 32.1024 29.4602 30.4811 31.1141C28.8598 32.768 26.9266 34.0883 24.7919 34.9997C22.6571 35.911 20.3626 36.3955 18.0394 36.4255ZM29.3705 12.0652C29.4649 11.5929 29.3827 11.1027 29.1393 10.6863C28.493 9.7102 27.5665 8.94958 26.4799 8.50311C26.3792 8.11501 26.1801 7.759 25.9018 7.46894C23.9948 5.7705 21.5251 4.82965 18.9644 4.82609C16.6252 4.75238 14.2978 5.18361 12.1426 6.09006C11.4489 6.43478 10.8707 6.7795 10.2926 7.12422C14.6863 5.17081 20.1206 5.28571 23.0112 6.54969C23.9362 7.00932 24.5143 7.23913 24.7456 7.81367C22.5364 7.14356 20.2327 6.83313 17.9238 6.89441C14.3843 7.06389 10.9191 7.96394 7.7489 9.53727L6.93953 10.5714C10.1264 8.93344 13.6436 8.03012 17.23 7.92857C19.7775 7.81912 22.3239 8.1695 24.7456 8.96273C24.7032 9.20135 24.6088 9.42787 24.469 9.62637C24.3291 9.82488 24.1473 9.99056 23.9362 10.1118C15.2644 8.61801 10.177 10.3416 5.55205 13.4441L5.20518 14.4783C7.7479 12.7505 10.6125 11.5453 13.6306 10.9336C16.6488 10.3219 19.7595 10.3159 22.78 10.9162C20.5831 11.7205 17.9238 11.8354 15.8425 12.4099C14.0467 12.7773 12.2714 13.2376 10.5239 13.7888C8.61636 14.2346 6.88558 15.2346 5.55205 16.6615C5.08711 17.1833 4.76816 17.8173 4.62706 18.5C4.60824 18.8487 4.64731 19.1981 4.74269 19.5342C4.89287 19.8651 5.08733 20.1743 5.32081 20.4534C5.10271 20.7281 4.97469 21.0627 4.95401 21.4121C4.93333 21.7614 5.021 22.1086 5.20518 22.4068C5.56076 22.8184 5.94728 23.2025 6.36142 23.5559C6.36142 23.6708 6.24579 23.7857 6.24579 23.9006C6.11073 24.397 6.15155 24.9244 6.36142 25.3944C6.85061 26.2036 7.57671 26.845 8.44264 27.2329C8.51097 27.906 8.84328 28.5252 9.36763 28.9565C11.4845 30.9789 14.294 32.1286 17.23 32.1739C19.4637 32.3434 21.7017 31.9065 23.7049 30.9099L24.7456 30.3354C22.4049 31.128 19.9269 31.4407 17.4613 31.2547C13.8769 30.9099 10.6395 28.4969 10.2926 27.8075C10.4082 27.9224 10.6395 27.9224 10.7551 28.0373C13.3244 29.3392 16.1569 30.0465 19.0402 30.1062C21.9236 30.1659 24.7833 29.5764 27.4049 28.382L27.983 27.8075C21.6237 29.8758 16.0738 29.7609 10.177 26.5435C10.1945 26.3851 10.2446 26.2319 10.3242 26.0936C10.4037 25.9552 10.5111 25.8346 10.6395 25.7391C12.1488 26.463 13.7405 27.0031 15.3801 27.3478C17.475 27.7427 19.6136 27.8586 21.7393 27.6926C24.4222 27.4514 27.0429 26.7517 29.4861 25.6242C29.6017 25.5093 29.7174 25.1646 29.9486 25.0497C26.587 26.3076 23.0187 26.9312 19.4269 26.8882C16.7499 26.7749 14.1198 26.1507 11.6801 25.0497C12.2397 24.8069 12.8202 24.6146 13.4145 24.4752C15.4831 25.0795 17.6191 25.4269 19.7737 25.5093C23.6901 25.4607 27.5371 24.4754 30.9892 22.6367L31.2205 21.9472C28.0746 23.5841 24.5951 24.4878 21.0456 24.5901C19.2857 24.631 17.5302 24.3984 15.8425 23.9006C18.3863 23.441 21.6237 22.9814 25.2081 22.0621C27.0339 21.5626 28.7563 20.7456 30.2955 19.6491C30.7412 19.3155 31.0998 18.8806 31.3413 18.3807C31.5827 17.8808 31.6999 17.3306 31.683 16.7764C31.5185 16.2981 31.1914 15.8918 30.758 15.6273C30.9413 15.4297 31.0696 15.188 31.1304 14.9261C31.1912 14.6642 31.1824 14.391 31.1049 14.1335C31.0419 13.7735 30.925 13.4249 30.758 13.0994C30.324 12.7184 29.86 12.3726 29.3705 12.0652ZM28.908 13.2143C29.4861 13.6739 29.6017 14.0186 29.3705 14.5932C28.9602 14.3393 28.5355 14.1091 28.0986 13.9037C28.3922 13.7031 28.6636 13.472 28.908 13.2143ZM28.4455 15.5124C27.8866 16.0136 27.2112 16.3689 26.4799 16.5466C23.7244 17.4517 20.9024 18.1432 18.0394 18.6149C15.8425 18.9596 14.1082 19.3044 11.6801 19.8789C10.611 20.1213 9.59338 20.5491 8.67389 21.1429C8.21139 20.7981 7.86452 20.7981 7.40203 20.3385C9.02076 18.8447 12.3738 18.0404 13.6457 17.8106C17.5769 16.8913 21.2769 16.4317 22.6643 15.9721C24.0592 15.6582 25.4159 15.1959 26.7112 14.5932C27.324 14.8299 27.9063 15.1385 28.4455 15.5124ZM26.3643 9.53727C27.0031 9.89423 27.4945 10.464 27.7518 11.146C27.058 10.9162 26.4799 10.6863 25.7862 10.4565C26.0442 10.1958 26.2415 9.882 26.3643 9.53727ZM24.8612 11.3758C25.7389 11.5935 26.5914 11.9016 27.4049 12.295C27.1049 12.6946 26.7068 13.0111 26.2487 13.2143C25.2311 12.8647 24.1872 12.5957 23.1268 12.4099C23.7488 12.1437 24.3321 11.7959 24.8612 11.3758ZM6.36142 19.3044C4.74269 17.1211 10.2926 15.5124 11.3332 15.1677C14.1332 14.3622 16.9948 13.7857 19.8894 13.4441C21.4843 13.2484 23.1031 13.4053 24.6299 13.9037C19.8894 15.1677 15.2644 15.6273 10.8707 16.8913C7.2864 17.9255 6.36142 19.3044 6.36142 19.3044ZM7.17078 22.5217C6.82391 22.2919 6.47704 21.8323 6.70829 21.4876C7.04103 21.7033 7.38878 21.8953 7.7489 22.0621C7.51071 22.1482 7.30759 22.3097 7.17078 22.5217ZM8.55826 25.7391C7.98015 25.2795 7.7489 24.9348 7.7489 24.4752C8.06978 24.7099 8.41948 24.9029 8.78951 25.0497C8.78395 25.2974 8.70336 25.5377 8.55826 25.7391ZM9.94575 24.2453C9.48325 24.0155 8.90514 23.6708 8.44264 23.441C8.66155 23.1871 8.93932 22.9899 9.25201 22.8665C9.94575 23.2112 10.5239 23.441 11.2176 23.7857C10.7747 23.881 10.3468 24.0356 9.94575 24.2453ZM22.5487 21.028C20.6987 21.4876 18.0394 21.9472 17.23 22.0621C15.7018 22.2879 14.194 22.6337 12.7207 23.0963C11.9113 22.7516 11.2176 22.4068 10.5239 22.0621C11.2192 21.7289 11.959 21.4968 12.7207 21.3727C16.4207 20.4534 19.7737 20.2236 24.2831 18.9596C25.9939 18.6151 27.6105 17.9098 29.0236 16.8913C29.1393 16.7764 29.3705 16.6615 29.4861 16.5466C30.8736 18.7298 25.9018 20.3385 22.5487 21.028ZM136.9 11.6056L133.779 26.6584H137.479L137.941 24.0155H140.485L140.947 26.6584H144.647L141.41 11.6056H136.9ZM138.519 20.7981L139.213 16.2019L139.907 20.7981H138.519ZM115.51 15.1677L112.851 11.6056H109.729V26.6584H113.313V17.4658L115.51 20.1087L117.707 17.4658V26.6584H121.291V11.6056H118.169L115.51 15.1677ZM127.997 17.236H127.304V15.2826H132.16V11.6056H123.835V26.6584H128.229C128.885 26.6917 129.541 26.5857 130.153 26.3476C130.766 26.1095 131.32 25.7446 131.779 25.2773C132.238 24.8099 132.592 24.2508 132.817 23.637C133.043 23.0232 133.134 22.3689 133.085 21.7174C133.085 17.9255 129.963 17.236 127.997 17.236ZM127.882 23.6708H127.304V20.2236H127.882C128.344 20.2236 129.501 20.2236 129.501 21.8323C129.534 22.062 129.517 22.2961 129.451 22.5187C129.384 22.7412 129.27 22.9469 129.117 23.1215C128.963 23.2962 128.773 23.4357 128.56 23.5305C128.347 23.6253 128.115 23.6732 127.882 23.6708ZM102.213 11.3758C97.9353 11.3758 96.4322 15.2826 96.4322 19.0745C96.4322 22.9814 97.9353 26.7733 102.213 26.7733C106.491 26.7733 107.995 22.8665 107.995 19.0745C107.995 15.2826 106.491 11.3758 102.213 11.3758ZM102.213 23.2112C100.941 23.2112 100.248 21.7174 100.248 19.0745C100.248 16.4317 100.941 14.9379 102.213 14.9379C103.485 14.9379 104.179 16.4317 104.179 19.0745C104.179 21.8323 103.485 23.2112 102.213 23.2112ZM165.691 18.7298L168.466 11.6056H164.65L162.569 17.0062H161.759V11.6056H158.175V26.6584H161.759V20.5683H162.569L164.65 26.6584H168.812L165.691 18.7298ZM152.278 17.0062H149.735V11.6056H146.15V26.6584H149.735V20.5683H152.278V26.6584H155.863V11.6056H152.278V17.0062ZM90.7666 11.6056H85.9104V26.6584H89.4948V21.7174H90.7666C91.4178 21.7137 92.0614 21.5778 92.6579 21.318C93.2543 21.0581 93.791 20.6798 94.235 20.2063C94.6789 19.7328 95.0208 19.1741 95.2396 18.5645C95.4584 17.9549 95.5494 17.3073 95.5072 16.6615C95.5382 16.0182 95.4394 15.3753 95.2165 14.7705C94.9936 14.1658 94.6512 13.6115 94.2094 13.1404C93.7676 12.6692 93.2354 12.2907 92.6441 12.0271C92.0529 11.7635 91.4145 11.6202 90.7666 11.6056ZM90.4197 18.3851H89.6104V14.9379H90.4197C91.2291 14.9379 91.8072 15.3975 91.8072 16.6615C91.8072 18.2702 90.8822 18.3851 90.4197 18.3851ZM69.7231 18.9596V18.8447C70.4026 18.5333 70.974 18.0287 71.365 17.3947C71.7561 16.7607 71.9492 16.0257 71.92 15.2826C71.9237 14.7387 71.8128 14.2001 71.5945 13.7014C71.3761 13.2027 71.0551 12.755 70.6522 12.387C70.2492 12.019 69.7732 11.7389 69.2547 11.5647C68.7363 11.3906 68.1869 11.3262 67.6419 11.3758C66.5921 11.3831 65.5459 11.4986 64.5201 11.7205V14.9379C65.1424 14.6693 65.8081 14.5137 66.4857 14.4783C66.8325 14.4783 68.1044 14.5932 68.1044 15.8571C68.1012 16.0622 68.0562 16.2645 67.9722 16.4519C67.8882 16.6392 67.767 16.8078 67.6158 16.9473C67.4645 17.0869 67.2864 17.1946 67.0922 17.2639C66.898 17.3333 66.6917 17.3629 66.4857 17.3509H64.9826V20.5683H66.4857C67.7575 20.5683 68.3356 21.1429 68.3356 21.9472C68.3299 22.1515 68.2832 22.3526 68.1984 22.5388C68.1135 22.7249 67.9922 22.8924 67.8415 23.0315C67.6908 23.1706 67.5138 23.2784 67.3207 23.3487C67.1276 23.419 66.9223 23.4504 66.7169 23.441C65.8822 23.4833 65.0494 23.3257 64.2888 22.9814L64.1732 26.0839C65.2352 26.6582 66.4338 26.9362 67.6419 26.8882C70.3012 26.8882 72.3825 25.2795 72.3825 22.5217C72.3827 21.723 72.1242 20.9453 71.6453 20.3038C71.1664 19.6623 70.4924 19.191 69.7231 18.9596ZM55.2702 11.6056L52.1483 26.6584H55.8483L56.3108 24.0155H58.8545L59.317 26.6584H63.017L59.8951 11.6056H55.2702ZM56.8889 20.7981L57.5826 16.2019L58.2764 20.7981H56.8889ZM52.6108 11.6056H45.0953V26.6584H48.7953V15.2826H52.4952L52.6108 11.6056ZM73.8856 26.6584H77.4699V15.1677H80.1292V26.6584H83.7136V11.6056H73.77V26.6584H73.8856Z" fill="#0057B6"/>
</svg>
