<svg width="16" height="16" viewBox="0 0 16 16" fill="none" xmlns="http://www.w3.org/2000/svg">
<path fill-rule="evenodd" clip-rule="evenodd" d="M7.99999 15.3334C3.9499 15.3334 0.666656 12.0502 0.666656 8.00008C0.666656 3.94999 3.9499 0.666748 7.99999 0.666748C12.0501 0.666748 15.3333 3.94999 15.3333 8.00008C15.3333 12.0502 12.0501 15.3334 7.99999 15.3334ZM7.99999 14.0001C11.3137 14.0001 14 11.3138 14 8.00008C14 4.68637 11.3137 2.00008 7.99999 2.00008C4.68628 2.00008 1.99999 4.68637 1.99999 8.00008C1.99999 11.3138 4.68628 14.0001 7.99999 14.0001ZM7.99999 3.33341C8.36818 3.33341 8.66666 3.63189 8.66666 4.00008V7.72394L10.4714 9.52868C10.7317 9.78903 10.7317 10.2111 10.4714 10.4715C10.211 10.7318 9.78894 10.7318 9.52859 10.4715L7.52859 8.47149C7.40356 8.34646 7.33332 8.17689 7.33332 8.00008V4.00008C7.33332 3.63189 7.6318 3.33341 7.99999 3.33341Z" fill="#2F3441"/>
<mask id="mask0" mask-type="alpha" maskUnits="userSpaceOnUse" x="0" y="0" width="16" height="16">
<path fill-rule="evenodd" clip-rule="evenodd" d="M7.99999 15.3334C3.9499 15.3334 0.666656 12.0502 0.666656 8.00008C0.666656 3.94999 3.9499 0.666748 7.99999 0.666748C12.0501 0.666748 15.3333 3.94999 15.3333 8.00008C15.3333 12.0502 12.0501 15.3334 7.99999 15.3334ZM7.99999 14.0001C11.3137 14.0001 14 11.3138 14 8.00008C14 4.68637 11.3137 2.00008 7.99999 2.00008C4.68628 2.00008 1.99999 4.68637 1.99999 8.00008C1.99999 11.3138 4.68628 14.0001 7.99999 14.0001ZM7.99999 3.33341C8.36818 3.33341 8.66666 3.63189 8.66666 4.00008V7.72394L10.4714 9.52868C10.7317 9.78903 10.7317 10.2111 10.4714 10.4715C10.211 10.7318 9.78894 10.7318 9.52859 10.4715L7.52859 8.47149C7.40356 8.34646 7.33332 8.17689 7.33332 8.00008V4.00008C7.33332 3.63189 7.6318 3.33341 7.99999 3.33341Z" fill="white"/>
</mask>
<g mask="url(#mask0)">
<rect width="16" height="16" fill="#002BAB"/>
</g>
</svg>
