<svg width="57" height="56" viewBox="0 0 57 56" fill="none" xmlns="http://www.w3.org/2000/svg">
<circle cx="28.4951" cy="28" r="28" fill="#D1B385"/>
<g clip-path="url(#clip0)">
<path d="M44.0885 21.5345C44.0537 20.2272 43.8096 18.9547 43.3564 17.7345C42.9555 16.6887 42.3454 15.7474 41.5436 14.963C40.7592 14.1612 39.8179 13.5511 38.7721 13.1502C37.5519 12.697 36.262 12.4529 34.9721 12.4181C33.2813 12.3309 32.7409 12.3135 28.4877 12.3135C24.2171 12.3135 23.6942 12.3309 22.0208 12.4006C20.7135 12.4355 19.4236 12.6795 18.2034 13.1327C17.1576 13.5337 16.2163 14.1437 15.4319 14.9456C14.6301 15.73 14.02 16.6712 13.6191 17.7345C13.1659 18.9373 12.9218 20.2272 12.887 21.5345C12.8172 23.2079 12.7998 23.7482 12.7998 28.0014C12.7998 32.2546 12.8172 32.795 12.887 34.4683C12.9044 35.7757 13.1659 37.0481 13.6191 38.2683C14.02 39.3142 14.6301 40.2554 15.4319 41.0398C16.2163 41.8417 17.1576 42.4518 18.2034 42.8527C19.4236 43.3059 20.7135 43.5499 22.0034 43.5848C23.6942 43.6719 24.2171 43.6894 28.4877 43.6894C32.7409 43.6894 33.2813 43.6719 34.9547 43.6022C36.262 43.5673 37.5345 43.3233 38.7546 42.8701C40.8638 42.0508 42.5197 40.3949 43.339 38.2857C43.7922 37.0656 44.0362 35.7757 44.0711 34.4858C44.1583 32.795 44.1757 32.272 44.1757 28.0014C44.1757 23.7482 44.1583 23.2079 44.0885 21.5345ZM41.2473 34.3463C41.2473 35.3399 41.0555 36.3335 40.7069 37.2573C40.184 38.6344 39.1033 39.7151 37.7262 40.238C36.7849 40.5866 35.8088 40.7609 34.8152 40.7784C33.1593 40.8481 32.6538 40.8655 28.4703 40.8655C24.2869 40.8655 23.7814 40.8481 22.1254 40.7784C21.1318 40.7784 20.1383 40.5866 19.2144 40.238C18.5346 39.994 17.9245 39.5756 17.4016 39.0701C16.8787 38.5646 16.4778 37.9371 16.2337 37.2573C15.8851 36.316 15.7108 35.3399 15.6934 34.3463C15.6411 32.6904 15.6236 32.1849 15.6236 28.0014C15.6236 23.818 15.6411 23.3125 15.7108 21.6565C15.7108 20.6629 15.9025 19.6694 16.2512 18.7455C16.5126 18.0657 16.9135 17.4556 17.4365 16.9501C17.942 16.4272 18.5695 16.0263 19.2493 15.7823C20.1906 15.4336 21.1667 15.2593 22.1603 15.2419C23.7988 15.1547 24.3043 15.1373 28.4877 15.1373C32.6712 15.1373 33.1767 15.1547 34.8327 15.2419C35.8262 15.2419 36.8198 15.4336 37.7436 15.7823C38.4234 16.0437 39.0335 16.4446 39.5565 16.9501C40.0794 17.4556 40.4803 18.0832 40.7243 18.763C41.073 19.7042 41.2473 20.6804 41.2647 21.674C41.3344 23.3125 41.3519 23.818 41.3519 28.0014C41.3519 32.1849 41.3344 32.6904 41.2473 34.3463ZM28.4877 19.9483C24.0428 19.9483 20.4346 23.5565 20.4346 28.0014C20.4346 32.4463 24.0428 36.0546 28.4877 36.0546C32.9327 36.0546 36.5409 32.4463 36.5409 28.0014C36.5409 23.5565 32.9327 19.9483 28.4877 19.9483ZM28.4877 33.2307C25.5942 33.2307 23.2584 30.895 23.2584 28.0014C23.2584 25.1079 25.5942 22.7721 28.4877 22.7721C31.3813 22.7721 33.7171 25.1079 33.7171 28.0014C33.7171 30.895 31.3813 33.2307 28.4877 33.2307ZM38.7372 19.6345C38.7372 20.6804 37.9005 21.5171 36.8547 21.5171C35.8088 21.5171 34.9721 20.6804 34.9721 19.6345C34.9721 18.5887 35.8088 17.752 36.8547 17.752C37.9005 17.752 38.7372 18.5887 38.7372 19.6345Z" fill="white"/>
</g>
<defs>
<clipPath id="clip0">
<rect width="31.3759" height="31.3759" fill="white" transform="translate(12.7998 12.3135)"/>
</clipPath>
</defs>
</svg>
