<svg width="56" height="56" viewBox="0 0 56 56" fill="none" xmlns="http://www.w3.org/2000/svg">
<circle cx="28" cy="28" r="28" fill="#D1B385"/>
<g clip-path="url(#clip0)">
<path d="M37.8064 12.3135C39.4269 12.3135 40.8126 12.8889 41.9633 14.0396C43.1139 15.1902 43.6894 16.576 43.6894 18.1965V37.8064C43.6894 39.4269 43.1139 40.8126 41.9633 41.9633C40.8126 43.1139 39.4269 43.6894 37.8064 43.6894H33.9661V31.5353H38.0311L38.6439 26.7962H33.9661V23.773C33.9661 23.0105 34.1261 22.4385 34.4461 22.0572C34.7662 21.6758 35.3893 21.4852 36.3152 21.4852L38.8073 21.4648V17.2364C37.9494 17.1138 36.7374 17.0525 35.1713 17.0525C33.3192 17.0525 31.8382 17.5973 30.7284 18.6867C29.6186 19.7761 29.0636 21.315 29.0636 23.3032V26.7962H24.9782V31.5353H29.0636V43.6894H18.1965C16.576 43.6894 15.1902 43.1139 14.0396 41.9633C12.8889 40.8126 12.3135 39.4269 12.3135 37.8064V18.1965C12.3135 16.576 12.8889 15.1902 14.0396 14.0396C15.1902 12.8889 16.576 12.3135 18.1965 12.3135H37.8064Z" fill="white"/>
</g>
<defs>
<clipPath id="clip0">
<rect width="31.3759" height="31.3759" fill="white" transform="translate(12.3135 12.3135)"/>
</clipPath>
</defs>
</svg>
