<svg width="72" height="72" viewBox="0 0 72 72" fill="none" xmlns="http://www.w3.org/2000/svg">
<g id="Instagram">
<path id="Combined Shape" fill-rule="evenodd" clip-rule="evenodd" d="M36 0C16.1177 0 0 16.1177 0 36C0 55.8823 16.1177 72 36 72C55.8823 72 72 55.8823 72 36C72 16.1177 55.8823 0 36 0ZM28.0849 16.916C30.1329 16.8228 30.7873 16.8 36.0018 16.8H35.9958C41.2119 16.8 41.8639 16.8228 43.9119 16.916C45.9559 17.0096 47.3519 17.3332 48.5759 17.808C49.8399 18.298 50.908 18.954 51.976 20.022C53.044 21.0892 53.7 22.1605 54.192 23.4233C54.664 24.6441 54.988 26.0393 55.084 28.0833C55.176 30.1313 55.2 30.7857 55.2 36.0002C55.2 41.2147 55.176 41.8675 55.084 43.9155C54.988 45.9587 54.664 47.3543 54.192 48.5755C53.7 49.8379 53.044 50.9092 51.976 51.9764C50.9092 53.0444 49.8395 53.702 48.5771 54.1924C47.3555 54.6672 45.9587 54.9908 43.9147 55.0844C41.8667 55.1776 41.2143 55.2004 35.9994 55.2004C30.7853 55.2004 30.1313 55.1776 28.0833 55.0844C26.0397 54.9908 24.6441 54.6672 23.4225 54.1924C22.1605 53.702 21.0892 53.0444 20.0224 51.9764C18.9548 50.9092 18.2988 49.8379 17.808 48.5751C17.3336 47.3543 17.01 45.9591 16.916 43.9151C16.8232 41.8671 16.8 41.2147 16.8 36.0002C16.8 30.7857 16.824 30.1309 16.9156 28.0829C17.0076 26.0397 17.3316 24.6441 17.8076 23.4229C18.2996 22.1605 18.9556 21.0892 20.0236 20.022C21.0908 18.9544 22.1621 18.2984 23.4249 17.808C24.6457 17.3332 26.0409 17.0096 28.0849 16.916Z" fill="#002BAB"/>
<path id="Combined Shape_2" fill-rule="evenodd" clip-rule="evenodd" d="M34.2795 20.26C34.6139 20.2595 34.9737 20.2597 35.362 20.2599L36.0019 20.26C41.1283 20.26 41.7359 20.2784 43.7604 20.3705C45.6324 20.4561 46.6484 20.7689 47.3252 21.0317C48.2212 21.3797 48.86 21.7957 49.5316 22.4677C50.2036 23.1397 50.6196 23.7797 50.9684 24.6757C51.2312 25.3517 51.5444 26.3677 51.6296 28.2397C51.7216 30.2638 51.7416 30.8718 51.7416 35.9958C51.7416 41.1199 51.7216 41.7279 51.6296 43.7519C51.544 45.6239 51.2312 46.6399 50.9684 47.3159C50.6204 48.2119 50.2036 48.8499 49.5316 49.5216C48.8596 50.1936 48.2216 50.6096 47.3252 50.9576C46.6492 51.2216 45.6324 51.5336 43.7604 51.6192C41.7363 51.7112 41.1283 51.7312 36.0019 51.7312C30.875 51.7312 30.2674 51.7112 28.2434 51.6192C26.3714 51.5328 25.3554 51.22 24.6782 50.9572C23.7822 50.6092 23.1421 50.1932 22.4701 49.5212C21.7981 48.8491 21.3821 48.2107 21.0333 47.3143C20.7705 46.6383 20.4573 45.6223 20.3721 43.7503C20.2801 41.7263 20.2617 41.1183 20.2617 35.991C20.2617 30.8638 20.2801 30.259 20.3721 28.2349C20.4577 26.3629 20.7705 25.3469 21.0333 24.6701C21.3813 23.7741 21.7981 23.1341 22.4701 22.4621C23.1421 21.7901 23.7822 21.3741 24.6782 21.0253C25.355 20.7613 26.3714 20.4493 28.2434 20.3633C30.0146 20.2832 30.701 20.2592 34.2795 20.2552V20.26ZM46.2508 23.4481C44.9788 23.4481 43.9468 24.4789 43.9468 25.7513C43.9468 27.0233 44.9788 28.0553 46.2508 28.0553C47.5228 28.0553 48.5548 27.0233 48.5548 25.7513C48.5548 24.4793 47.5228 23.4473 46.2508 23.4473V23.4481ZM26.1418 36.0002C26.1418 30.555 30.5566 26.1401 36.0019 26.1401H36.0015C41.4467 26.1401 45.8604 30.555 45.8604 36.0002C45.8604 41.4455 41.4471 45.8583 36.0019 45.8583C30.5566 45.8583 26.1418 41.4455 26.1418 36.0002Z" fill="#002BAB"/>
<path id="Shape" fill-rule="evenodd" clip-rule="evenodd" d="M36.0019 29.6002C39.5363 29.6002 42.4019 32.4654 42.4019 36.0002C42.4019 39.5347 39.5363 42.4003 36.0019 42.4003C32.467 42.4003 29.6018 39.5347 29.6018 36.0002C29.6018 32.4654 32.467 29.6002 36.0019 29.6002V29.6002Z" fill="#002BAB"/>
</g>
</svg>
