<svg width="72" height="72" viewBox="0 0 72 72" fill="none" xmlns="http://www.w3.org/2000/svg">
<g id="Telegram">
<path id="Combined Shape" fill-rule="evenodd" clip-rule="evenodd" d="M72 36C72 55.8823 55.8823 72 36 72C16.1177 72 0 55.8823 0 36C0 16.1177 16.1177 0 36 0C55.8823 0 72 16.1177 72 36ZM29.4 52.5C30.2756 52.5 30.6757 52.1104 31.1593 51.6396L31.2 51.6L35.5241 47.3954L44.52 54.0417C46.1755 54.9552 47.3704 54.4822 47.7828 52.5047L53.6883 24.6757C54.2929 22.2517 52.7643 21.1523 51.1805 21.8713L16.5035 35.2426C14.1364 36.192 14.1502 37.5126 16.072 38.101L24.9709 40.8785L45.5728 27.881C46.5454 27.2912 47.438 27.6083 46.7054 28.2585L30.0128 43.3222L30.0126 43.3221L30.0126 43.3225L30.012 43.323L30.0125 43.3234L29.4 52.5Z" fill="#002BAB"/>
</g>
</svg>
