<svg width="72" height="72" viewBox="0 0 72 72" fill="none" xmlns="http://www.w3.org/2000/svg">
<g id="Twitter">
<path id="Combined Shape" fill-rule="evenodd" clip-rule="evenodd" d="M36 0C16.1177 0 0 16.1177 0 36C0 55.8823 16.1177 72 36 72C55.8823 72 72 55.8823 72 36C72 16.1177 55.8823 0 36 0ZM34.9973 30.5069L34.9218 29.2613C34.6952 26.0326 36.6845 23.0837 39.8321 21.9397C40.9905 21.5329 42.9546 21.4821 44.2389 21.838C44.7425 21.9905 45.6994 22.499 46.3793 22.9566L47.6132 23.7955L48.9729 23.3633C49.7284 23.1345 50.7356 22.7532 51.1889 22.499C51.617 22.2702 51.9947 22.1431 51.9947 22.2193C51.9947 22.6515 51.063 24.126 50.2824 24.9395C49.2248 26.0835 49.5269 26.1852 51.6673 25.4225C52.9516 24.9903 52.9768 24.9903 52.725 25.4734C52.5739 25.7276 51.7932 26.6174 50.9623 27.4309C49.5521 28.8291 49.4766 28.9816 49.4766 30.151C49.4766 31.956 48.6204 35.7185 47.7642 37.7776C46.1778 41.6418 42.7784 45.6331 39.3789 47.6414C34.5944 50.4633 28.2236 51.1751 22.86 49.5226C21.0721 48.9634 18 47.5397 18 47.2855C18 47.2092 18.9317 47.1075 20.0649 47.0821C22.4319 47.0313 24.7989 46.3703 26.8134 45.2009L28.1732 44.3874L26.612 43.8535C24.396 43.0909 22.4067 41.3367 21.9031 39.6843C21.752 39.1504 21.8024 39.125 23.2125 39.125L24.673 39.0996L23.4392 38.5149C21.9786 37.7776 20.644 36.532 19.9893 35.2609C19.5109 34.3457 18.9065 32.0323 19.0828 31.8543C19.1332 31.778 19.662 31.9306 20.2663 32.1339C22.0038 32.7695 22.2305 32.617 21.2232 31.5492C19.3346 29.6172 18.7554 26.7445 19.662 24.0243L20.09 22.804L21.752 24.4565C25.1515 27.7868 29.1553 29.7697 33.7383 30.3544L34.9973 30.5069Z" fill="#002BAB"/>
</g>
</svg>
