<svg width="72" height="72" viewBox="0 0 72 72" fill="none" xmlns="http://www.w3.org/2000/svg">
<g id="VK">
<path id="Combined Shape" fill-rule="evenodd" clip-rule="evenodd" d="M36 0C16.1177 0 0 16.1177 0 36C0 55.8823 16.1177 72 36 72C55.8823 72 72 55.8823 72 36C72 16.1177 55.8823 0 36 0ZM38.9312 46.1643C38.5762 46.5385 37.8832 46.6141 37.8832 46.6141H35.5881C35.5881 46.6141 30.5246 46.9128 26.064 42.3554C21.1996 37.3833 16.9043 27.5183 16.9043 27.5183C16.9043 27.5183 16.6564 26.8712 16.925 26.5596C17.2274 26.2075 18.0519 26.1854 18.0519 26.1854L23.5379 26.1504C23.5379 26.1504 24.0544 26.2333 24.4244 26.5007C24.7305 26.7219 24.9015 27.133 24.9015 27.133C24.9015 27.133 25.7879 29.3342 26.9618 31.3253C29.255 35.2134 30.3218 36.0633 31.0993 35.6467C32.2337 35.0401 31.8938 30.1509 31.8938 30.1509C31.8938 30.1509 31.9144 28.3774 31.3228 27.5865C30.8646 26.9745 30.0006 26.7956 29.6194 26.7458C29.3095 26.7053 29.8166 26.001 30.4739 25.6858C31.4618 25.212 33.2047 25.1843 35.2651 25.2046C36.8709 25.2212 37.3329 25.3189 37.9602 25.4682C39.4161 25.8131 39.3706 26.9183 39.2725 29.3035C39.2432 30.0169 39.2092 30.8447 39.2092 31.8009C39.2092 32.0158 39.2028 32.2449 39.1962 32.4805C39.1622 33.7025 39.1232 35.1018 39.9435 35.6227C40.3642 35.8882 41.3916 35.6614 43.9627 31.3769C45.1817 29.3453 46.0944 26.9579 46.0944 26.9579C46.0944 26.9579 46.2954 26.532 46.6053 26.3495C46.9227 26.1633 47.3509 26.2204 47.3509 26.2204L53.1243 26.1854C53.1243 26.1854 54.8598 25.9808 55.1396 26.7514C55.4345 27.557 54.4916 29.4412 52.1327 32.5273C49.895 35.4556 48.8061 36.5338 48.906 37.4873C48.9791 38.184 49.6869 38.8142 51.0452 40.051C53.8809 42.6352 54.6409 43.9949 54.8235 44.3215C54.8386 44.3486 54.8498 44.3686 54.8579 44.3815C56.1294 46.4519 53.4474 46.6141 53.4474 46.6141L48.3182 46.6842C48.3182 46.6842 47.2176 46.898 45.7676 45.9209C45.0081 45.4096 44.2659 44.5743 43.559 43.7787C42.4795 42.5638 41.4821 41.4414 40.6309 41.7065C39.2017 42.1527 39.2449 45.1743 39.2449 45.1743C39.2449 45.1743 39.2561 45.8214 38.9312 46.1643Z" fill="#002BAB"/>
</g>
</svg>
